<svg xmlns="http://www.w3.org/2000/svg" width="34.7751mm" height="49.8519mm" viewBox="0 0 98.5752 141.3125">
    <g id="Device">
        <path d="M28.0081.0967a2.2333,2.2333,0,0,1,.909-.0816L96.2609,7.9067a2.8531,2.8531,0,0,1,2.3143,2.9661v120.478a2.8469,2.8469,0,0,1-2.3439,2.9694l-67.3438,6.98a2.2442,2.2442,0,0,1-1.0457-.1422L1.7567,131.0469A2.9788,2.9788,0,0,1,0,128.22V10.8729A2.94,2.94,0,0,1,1.923,7.9883Zm1.9365,6.0318V135.2046l63.4843-6.58V13.5678Zm-2.5731.3231L5.1462,13.1756V126.0734l22.2253,8.6154Z"/>
    </g>
</svg>