<svg id="Layer_1" data-name="Layer 1" xmlns="http://www.w3.org/2000/svg" viewBox="0 0 126.13 126.13">
  <defs>
    <style>.cls-1{fill:transparent;}.cls-2{fill:#fff;}.cls-3{fill:none;stroke:#fff;stroke-linecap:round;stroke-miterlimit:10;stroke-width:3.74px;}</style>
    <mask id="textMask">
      <rect width="100%" height="100%" fill="white"/>
      <!-- A letter -->
      <path d="M334.49,539.08h-6.72a1,1,0,0,1-1-.86l-1.73-7.87h-9.84l-1.73,7.87a1,1,0,0,1-1,.86h-6.72a0.74,0.74,0,0,1-.82-0.77,2.15,2.15,0,0,0,0-.24l7.15-29.76c1.1-4.61,4.66-5.33,8-5.33s6.82,0.72,7.92,5.33l7.15,29.76a2.15,2.15,0,0,0,0,.24A0.74,0.74,0,0,1,334.49,539.08Zm-13.68-28.56c-0.1-.48-0.19-0.72-0.62-0.72a0.67,0.67,0,0,0-.67.72l-2.93,13.25h7.15Z" transform="translate(-262.95 -447.06)" fill="black"/>
      <!-- Q letter -->
      <path d="M352.17,522.27a13.93,13.93,0,0,0,3.41,1.78l-1.57,3a9.71,9.71,0,0,1-1.88-.79q-0.2-.1-2.84-1.87a11.33,11.33,0,0,1-4.59.91a10.08,10.08,0,0,1-7.62-2.86q-2.76-2.86-2.76-8t2.76-8a9.93,9.93,0,0,1,7.5-2.87a9.82,9.82,0,0,1,7.44,2.87q2.75,2.87,2.75,8a13.89,13.89,0,0,1-.76,4.81A10,10,0,0,1,352.17,522.27Zm-3.43-2.4a6.36,6.36,0,0,0,1.23-2.33,10.91,10.91,0,0,0,.41-3.14q0-3.66-1.61-5.46a5.83,5.83,0,0,0-8.44,0,8,8,0,0,0-1.62,5.45q0,3.7,1.62,5.54a5.23,5.23,0,0,0,4.09,1.83a5,5,0,0,0,1.74-.30a12.33,12.33,0,0,0-2.63-1.32l1.2-2.43A14.47,14.47,0,0,1,348.74,519.86Z" transform="translate(-262.95 -447.06)" fill="black"/>
    </mask>
  </defs>
  <title>AQ</title>
  <circle class="cls-1" cx="63.06" cy="63.07" r="63.06"/>
  <g mask="url(#textMask)">
    <path class="cls-2" d="M287.48,542.6s-0.53,5.16,5.15,4.81c2.68,0,63.57.18,66.95,0,5.16,0.18,5-4.81,5-4.81V509l-0.93-.94-32.71-33s-4.18-5.34-9.61,0l-33.2,33.29-0.62.62" transform="translate(-262.95 -447.06)"/>
    <path class="cls-3" d="M279.62,507.67S315,472.5,317,470.8c8.18-7.68,8.49-9.3,17.82,0l37.46,36.87" transform="translate(-262.95 -447.06)"/>
    <path class="cls-2" d="M356.37,489.86s-0.12-14.43,0-16.93c0.25-3.18-1.36-3-3.21-2.93s-4.71.06-7,0c-2.69-.18-3.43-0.25-3.21,2.93v5.24Z" transform="translate(-262.95 -447.06)"/>
  </g>
</svg>