<svg xmlns="http://www.w3.org/2000/svg" width="360.9485mm" height="525.016mm" viewBox="0 0 1023.1611 1488.2343">
    <g id="Base">
        <path d="M596.5145,64.2092C584.8586,21.8875,548.2341,0,511.4933,0c-35.8978,0-71.9119,20.9282-84.8468,64.2091C290.7,522.7714,0,647.3819,0,970.5788c0,286.1363,228.816,517.6555,511.5806,517.6555s511.5805-231.5192,511.5805-517.6555C1023.1611,645.7542,733.1007,524.8642,596.5145,64.2092ZM511.5806,1395.22c-230.7926,0-418.566-190.5057-418.566-424.6409,0-140.5685,66.8543-236.3735,159.4039-368.9775,84.8177-121.5294,189.9243-272.1551,259.22-496.7854,69.2668,225.328,174.5768,375.8663,259.569,497.28,92.2588,131.9065,158.9387,227.1883,158.9387,368.4834C930.1464,1204.714,742.3731,1395.22,511.5806,1395.22Z"/>
    </g>
    <g id="Amount">
        <path d="M337.33,887.5q0-32.2266,20.7519-52.8565,20.7481-20.6279,54.4434-20.63,34.1777,0,54.81,20.63,20.6278,20.6338,20.63,54.0772v17.5781q0,31.9863-20.63,52.49-20.6338,20.5078-54.3213,20.5078-32.959,0-54.3213-20.1416Q337.3258,939.014,337.33,904.8343Zm41.5039,18.7q0,16.891,9.3994,27.2939,9.3956,10.4026,24.78,10.4029,15.1347,0,24.414-10.4029,9.2754-10.4025,9.2774-28.2705V887.3552q0-16.891-9.3994-27.416-9.4014-10.5227-24.78-10.5249-15.3808,0-24.5361,10.647-9.1554,10.6486-9.1553,28.0264ZM425.22,1147.9983,394.7028,1130.42l173.584-277.832,30.5176,17.5781Zm83.0078-60.5469q0-32.7129,21.24-52.9785,21.24-20.2617,54.1993-20.2636,33.1992,0,54.3213,20.2636,21.1141,20.2676,21.1181,54.6875v17.334q0,31.74-20.3857,52.3682-20.3877,20.6337-54.5655,20.63-34.1835,0-55.0537-20.3858-20.874-20.3818-20.874-53.833Zm41.5039,18.7989q0,16.6055,9.6436,27.2216,9.6415,10.62,24.78,10.62,15.6212,0,24.5362-10.1319,8.9091-10.1278,8.9111-28.4424v-18.3105q0-17.0859-9.5215-27.3438-9.5214-10.2539-24.414-10.2539-15.1407,0-24.5362,10.2539-9.4012,10.254-9.3994,28.32Z"/>
    </g>
</svg>