<svg xmlns="http://www.w3.org/2000/svg" width="360.9485mm" height="525.016mm" viewBox="0 0 1023.1611 1488.2343">
    <g id="Base">
        <path d="M596.5145,64.2092C584.8586,21.8875,548.2341,0,511.4933,0c-35.8978,0-71.9119,20.9282-84.8468,64.2091C290.7,522.7714,0,647.3819,0,970.5788c0,286.1363,228.816,517.6555,511.5806,517.6555s511.5805-231.5192,511.5805-517.6555C1023.1611,645.7542,733.1007,524.8642,596.5145,64.2092ZM511.5806,1395.22c-230.7926,0-418.566-190.5057-418.566-424.6409,0-140.5685,66.8543-236.3735,159.4039-368.9775,84.8177-121.5294,189.9243-272.1551,259.22-496.7854,69.2668,225.328,174.5768,375.8663,259.569,497.28,92.2588,131.9065,158.9387,227.1883,158.9387,368.4834C930.1464,1204.714,742.3731,1395.22,511.5806,1395.22Z"/>
    </g>
    <g id="Percent">
        <path d="M176.3942,947.908q0-34.4532,16.2012-55.0293t42.998-20.5762q25.2921,0,39.7852,17.6367l1.5039-14.9023h29.9414v143.4184q0,29.1212-18.1152,45.9375-18.1172,16.8165-48.877,16.8165a78.7709,78.7709,0,0,1-31.7871-6.7676q-15.5186-6.7676-23.584-17.7051l15.7227-19.9609q15.31,18.1817,37.7344,18.1836,16.5409,0,26.1132-8.9551,9.5685-8.9561,9.57-26.3184v-9.9809q-14.3556,15.9968-38.2813,15.9965-25.9776,0-42.4512-20.645Q176.3924,984.4139,176.3942,947.908Zm33.086,2.8711q0,22.2861,9.0918,35.0683,9.0907,12.7853,25.2246,12.7832,20.0976,0,29.8047-17.2265V916.3259Q264.1677,899.51,244.07,899.51q-16.4062,0-25.498,12.9883Q209.4783,925.4881,209.48,950.7791Z"/>
        <path d="M499.6052,989.0154l1.0937,17.6563q17.8125-20.7789,48.75-20.7813,33.9039,0,46.4063,25.9375,18.435-25.935,51.875-25.9375,27.9668,0,41.6406,15.4688,13.67,15.4688,13.9844,45.6245v111.0937H665.3864v-110q0-16.0912-7.0312-23.5937-7.0312-7.5-23.2813-7.5-12.9711,0-21.1719,6.9531a36.6743,36.6743,0,0,0-11.4843,18.2031l.1562,115.9375H564.6052v-111.25q-.7837-29.8417-30.4688-29.8437-22.8148,0-32.3437,18.5937v122.5H463.8239V989.0154Z"/>
        <path d="M764.7614,981.0467h12.6563q20.625,0,20.625-15.1563a13.0713,13.0713,0,0,0-4.2188-9.6094q-4.2187-4.1382-13.9062-4.1406a24.0606,24.0606,0,0,0-12.5782,3.0469q-5.08,3.0468-5.0781,8.5156H733.1989q0-15.4687,12.8906-25.1562t33.2032-9.6875q22.3418,0,35.0781,9.4531,12.7324,9.4555,12.7344,25.8594,0,18.5961-21.0938,26.5625,23.2792,6.4086,23.2813,28.5932,0,16.5645-13.8282,26.4063-13.8281,9.8438-36.1718,9.8437-21.0937,0-34.4532-9.9219-13.3593-9.92-13.3593-27.5781h29.0625q0,5.94,5.3906,10.0781,5.3905,4.1427,14.7656,4.1407,9.8438,0,14.6094-4.2969a13.9933,13.9933,0,0,0,4.7656-10.8594q0-15.7792-20.9375-15.937h-14.375Z"/>
        <path d="M359.7614,1131.0032H329.9177l89.5312-247.0308h29.8438Z"/>
    </g>
</svg>