<?xml version="1.0" encoding="UTF-8"?>
<svg version="1.1" xmlns="http://www.w3.org/2000/svg" width="1772" height="464">
<path d="M0 0 C3.86125812 3.40591088 7.58760353 6.94107213 11.28222656 10.52587891 C12.136875 11.34056641 12.99152344 12.15525391 13.87207031 12.99462891 C17.92374845 16.92525515 17.92374845 16.92525515 19.28222656 18.52587891 C19.28222656 19.18587891 19.28222656 19.84587891 19.28222656 20.52587891 C17.55175781 22.08447266 17.55175781 22.08447266 15.09472656 23.96337891 C10.97802644 27.17556464 6.94532846 30.4551303 2.96972656 33.83837891 C2.42582275 34.30010498 1.88191895 34.76183105 1.3215332 35.23754883 C-0.92797965 37.14863066 -3.17490814 39.06272311 -5.42041016 40.97851562 C-6.55299283 41.94451331 -7.6862121 42.90976511 -8.82006836 43.87426758 C-10.36545023 45.18883823 -11.90886964 46.50571493 -13.45214844 47.82275391 C-17.46803529 51.14690905 -21.60273 54.32528957 -25.71777344 57.52587891 C5.96222656 57.85587891 37.64222656 58.18587891 70.28222656 58.52587891 C79.53681163 102.7165226 79.53681163 102.7165226 82.20410156 115.63916016 C82.38004601 116.49156092 82.55599045 117.34396168 82.73726654 118.22219276 C88.6812259 147.04777057 94.38910222 175.85837392 97.9284668 205.09204102 C98.24834291 207.2927622 98.69716868 209.38233438 99.28222656 211.52587891 C99.38132324 210.67735352 99.48041992 209.82882812 99.58251953 208.95458984 C103.06266302 179.85982117 108.50097494 151.24051582 114.28222656 122.52587891 C114.48825249 121.50199947 114.48825249 121.50199947 114.69844055 120.45743561 C115.73757904 115.29368624 116.77870067 110.13033905 117.82128906 104.96728516 C117.95727886 104.29380476 118.09326866 103.62032436 118.23337936 102.92643547 C121.22467992 88.12112834 124.25814747 73.32456382 127.28222656 58.52587891 C155.00222656 58.52587891 182.72222656 58.52587891 211.28222656 58.52587891 C214.73185886 72.32440808 214.73185886 72.32440808 216.08813477 78.78417969 C216.24474579 79.52135727 216.40135681 80.25853485 216.56271362 81.01805115 C217.07191231 83.41859046 217.5777245 85.81982512 218.08300781 88.22119141 C218.44545455 89.93863674 218.80793809 91.65607431 219.17045593 93.37350464 C219.92936819 96.97212074 220.68631501 100.57114417 221.44213867 104.17041016 C222.20157291 107.78543603 222.96458647 111.39967371 223.73120117 115.01318359 C227.62161071 133.35461111 231.43490752 151.69772263 234.67675781 170.16650391 C234.85484199 171.18023764 234.85484199 171.18023764 235.03652382 172.21445084 C237.37704262 185.61237507 239.39305168 199.05745262 241.28222656 212.52587891 C241.36150391 211.75139404 241.44078125 210.97690918 241.52246094 210.17895508 C244.13461393 185.35087383 248.44573558 161.00683414 253.28222656 136.52587891 C253.42223587 135.81650681 253.56224518 135.1071347 253.70649719 134.37626648 C256.19724428 121.75674681 258.70312514 109.14026714 261.21972656 96.52587891 C261.47585409 95.24168941 261.47585409 95.24168941 261.73715591 93.9315567 C262.72828807 88.96403825 263.72203141 83.99705352 264.71946335 79.03079605 C265.02765773 77.49520318 265.33523431 75.95948617 265.64216995 74.4236412 C266.06581164 72.30499615 266.49190397 70.18685897 266.91870117 68.06884766 C267.15882431 66.87283936 267.39894745 65.67683105 267.64634705 64.44458008 C268.28222656 61.52587891 268.28222656 61.52587891 269.28222656 58.52587891 C301.95222656 58.52587891 334.62222656 58.52587891 368.28222656 58.52587891 C367.60671575 63.92996543 366.96850629 68.14895537 365.43457031 73.21337891 C365.07685547 74.40576172 364.71914063 75.59814453 364.35058594 76.82666016 C363.97740234 78.04740234 363.60421875 79.26814453 363.21972656 80.52587891 C362.84267578 81.77755859 362.465625 83.02923828 362.07714844 84.31884766 C361.15122317 87.38963779 360.21944006 90.45851892 359.28222656 93.52587891 C360.21736084 92.42880615 360.21736084 92.42880615 361.17138672 91.30957031 C383.7930749 65.04193196 417.23299301 51.64858151 451.28222656 48.90087891 C488.21519814 46.69292952 526.26049165 54.24620857 555.28222656 78.52587891 C563.92560265 86.28364642 572.32806852 94.4840217 578.28222656 104.52587891 C578.94480469 105.60224609 579.60738281 106.67861328 580.29003906 107.78759766 C584.89074619 115.42290404 588.36481067 123.08220405 591.28222656 131.52587891 C591.6109375 130.42373047 591.93964844 129.32158203 592.27832031 128.18603516 C597.07463714 112.66955368 603.46048964 98.79362378 614.28222656 86.52587891 C614.96285156 85.63255859 614.96285156 85.63255859 615.65722656 84.72119141 C630.74197824 65.23672048 656.37697997 56.76784959 679.71191406 52.96728516 C685.69219101 52.2573012 691.71925211 52.30238023 697.73364258 52.28564453 C699.81601051 52.27601174 701.89735775 52.24494508 703.97949219 52.21337891 C725.752822 52.04127301 745.2671109 58.30452859 761.72363281 72.94775391 C763.28222656 74.52587891 763.28222656 74.52587891 765.28222656 77.52587891 C765.61222656 71.25587891 765.94222656 64.98587891 766.28222656 58.52587891 C794.00222656 58.52587891 821.72222656 58.52587891 850.28222656 58.52587891 C850.61222656 77.66587891 850.94222656 96.80587891 851.28222656 116.52587891 C853.59222656 112.56587891 855.90222656 108.60587891 858.28222656 104.52587891 C872.03338782 84.34873639 890.04654593 70.39486593 912.28222656 60.52587891 C912.89437012 60.24905273 913.50651367 59.97222656 914.13720703 59.68701172 C953.03829587 42.4645804 1003.62341215 44.33229935 1042.90722656 59.27587891 C1055.35612881 64.52460526 1067.1406472 70.49353478 1077.28222656 79.52587891 C1078.08660156 80.17685547 1078.89097656 80.82783203 1079.71972656 81.49853516 C1084.86222191 85.79733986 1089.01054323 90.46671538 1092.96972656 95.83837891 C1093.39697021 96.41789307 1093.82421387 96.99740723 1094.2644043 97.59448242 C1097.066987 101.52537069 1099.53207143 105.6082846 1101.95336914 109.78442383 C1102.89083733 111.39905769 1102.89083733 111.39905769 1103.84724426 113.04631042 C1104.5575605 114.27369682 1104.5575605 114.27369682 1105.28222656 115.52587891 C1105.28000595 114.82652725 1105.27778534 114.1271756 1105.27549744 113.40663147 C1105.25549376 106.8288297 1105.24025204 100.25103637 1105.23041439 93.6732111 C1105.22518681 90.29116078 1105.21809145 86.90913551 1105.20678711 83.52709961 C1105.1938839 79.64258113 1105.18899732 75.75807294 1105.18457031 71.87353516 C1105.17940903 70.6537648 1105.17424774 69.43399445 1105.16893005 68.17726135 C1105.16885452 67.05617477 1105.16877899 65.9350882 1105.16870117 64.7800293 C1105.16648056 63.78741592 1105.16425995 62.79480255 1105.16197205 61.77210999 C1105.28222656 59.52587891 1105.28222656 59.52587891 1106.28222656 58.52587891 C1109.14314474 58.43065472 1111.97986277 58.40034565 1114.84106445 58.41235352 C1115.73853897 58.41220749 1116.63601349 58.41206146 1117.5606842 58.41191101 C1120.5421079 58.41261049 1123.52346996 58.42040449 1126.50488281 58.42822266 C1128.56611599 58.43008671 1130.6273496 58.43151067 1132.68858337 58.43251038 C1138.12526666 58.43633653 1143.56192342 58.44616765 1148.99859619 58.45721436 C1154.54170371 58.46742638 1160.08481549 58.47200755 1165.62792969 58.47705078 C1176.51270887 58.48778983 1187.39746136 58.50538741 1198.28222656 58.52587891 C1198.61222656 67.76587891 1198.94222656 77.00587891 1199.28222656 86.52587891 C1201.01472656 84.56650391 1202.74722656 82.60712891 1204.53222656 80.58837891 C1220.00709542 63.67383987 1240.45714096 54.2173457 1263.38769531 52.61572266 C1292.06130974 51.72571843 1320.22429136 54.38607611 1342.37597656 74.64697266 C1358.90461193 90.5707713 1366.06226762 114.11015335 1366.50392079 136.59185767 C1366.53728413 140.33235969 1366.5270827 144.07194258 1366.50927734 147.8125 C1366.50871176 149.4992726 1366.50903265 151.18604568 1366.51016235 152.87281799 C1366.51073114 157.40701256 1366.49905445 161.94109915 1366.48501444 166.47526884 C1366.47242723 171.23046526 1366.47133033 175.98566474 1366.46896362 180.74087524 C1366.46277217 189.72546352 1366.44639326 198.71000254 1366.42626464 207.69456923 C1366.39962997 219.84960047 1366.38891412 232.00464538 1366.37726021 244.15969849 C1366.35851074 263.28179544 1366.31864959 282.40378852 1366.28222656 301.52587891 C1334.27222656 301.52587891 1302.26222656 301.52587891 1269.28222656 301.52587891 C1269.23324219 291.46345703 1269.18425781 281.40103516 1269.13378906 271.03369141 C1269.09839765 264.65347455 1269.06251453 258.27326671 1269.02441406 251.89306641 C1268.96405005 241.76938952 1268.90567568 231.64572955 1268.86035156 221.52197266 C1268.82732929 214.14806672 1268.7874421 206.7742347 1268.73943651 199.40041053 C1268.71427289 195.49887874 1268.69246215 191.59739534 1268.6788826 187.6958046 C1268.66596961 184.01696969 1268.64381762 180.33830161 1268.61484337 176.65955925 C1268.60157419 174.67911384 1268.59786404 172.69861144 1268.5945282 170.71812439 C1268.49758006 160.29560878 1267.9323801 150.02329731 1261.28222656 141.52587891 C1252.44604001 133.91487788 1241.49059375 133.77187972 1230.42626953 134.33056641 C1222.55514168 135.04759012 1215.40030675 138.4708824 1210.28222656 144.52587891 C1204.00450772 153.86349215 1203.98178063 164.52310817 1203.96337891 175.39916992 C1203.95406427 176.77979611 1203.94389336 178.16041674 1203.93293762 179.54103088 C1203.90579637 183.263508 1203.89053572 186.98594761 1203.87750959 190.70849729 C1203.86180905 194.60827479 1203.83504114 198.5079765 1203.80947876 202.40769958 C1203.76281296 209.78097557 1203.72601008 217.15426602 1203.69280589 224.52761358 C1203.65449796 232.92674215 1203.60511069 241.32579435 1203.55482173 249.7248584 C1203.45168346 266.99180988 1203.36236457 284.25880567 1203.28222656 301.52587891 C1190.65227171 301.54900023 1178.02232186 301.56679291 1165.3923502 301.57769108 C1159.52840492 301.58292037 1153.66447408 301.59001885 1147.80053711 301.60131836 C1142.14660944 301.6121456 1136.4926957 301.61815539 1130.83875847 301.62075615 C1128.67649046 301.62261069 1126.51422325 301.62623186 1124.35196114 301.63160896 C1121.33463999 301.63881723 1118.31737713 301.63986994 1115.30004883 301.6394043 C1114.39662247 301.64299957 1113.49319611 301.64659485 1112.56239319 301.65029907 C1106.39627872 301.63993107 1106.39627872 301.63993107 1105.28222656 300.52587891 C1105.18852032 298.74595967 1105.16478385 296.96231151 1105.16870117 295.17993164 C1105.16881447 293.46827065 1105.16881447 293.46827065 1105.16893005 291.72203064 C1105.17409134 290.48038651 1105.17925262 289.23874237 1105.18457031 287.95947266 C1105.18598526 286.69571304 1105.18740021 285.43195343 1105.18885803 284.12989807 C1105.19352074 280.76463002 1105.20251176 277.39942901 1105.21356201 274.03417969 C1105.2237781 270.60238221 1105.22835608 267.17057782 1105.23339844 263.73876953 C1105.24445276 257.00112066 1105.26120946 250.26350366 1105.28222656 243.52587891 C1104.82259521 244.3319458 1104.36296387 245.1380127 1103.8894043 245.96850586 C1103.27524658 247.03544678 1102.66108887 248.1023877 1102.02832031 249.20166016 C1101.12231079 250.7820105 1101.12231079 250.7820105 1100.19799805 252.39428711 C1097.30014966 257.13121858 1093.87824635 261.30841103 1090.28222656 265.52587891 C1089.69054688 266.26322266 1089.09886719 267.00056641 1088.48925781 267.76025391 C1070.4574563 289.44455253 1042.28586175 301.8234538 1015.28222656 307.52587891 C1014.53473145 307.68958984 1013.78723633 307.85330078 1013.01708984 308.02197266 C989.13041017 313.01275744 960.04819462 313.24929942 936.28222656 307.52587891 C935.42967285 307.32188477 934.57711914 307.11789062 933.69873047 306.90771484 C901.44778781 298.92198855 873.31347729 282.18390583 855.65722656 253.33837891 C854.12927606 250.75957265 852.62248342 248.20639263 851.28222656 245.52587891 C851.2734272 246.53374199 851.2734272 246.53374199 851.26445007 247.56196594 C851.19974721 254.65330228 851.11514642 261.74421643 851.01977539 268.83520508 C850.98530737 271.47000469 850.95871235 274.10453793 850.93579102 276.73950195 C850.65872504 307.76499606 848.38161073 336.59831092 825.81738281 360.09228516 C818.96027535 366.6875941 811.67339721 371.2140187 803.28222656 375.52587891 C802.41339844 375.98607422 801.54457031 376.44626953 800.64941406 376.92041016 C774.67478522 389.74487424 744.71987472 391.89521802 716.28125 391.84155273 C712.81510439 391.83840873 709.34982902 391.86188773 705.88378906 391.88720703 C679.7613556 391.96079168 652.47545296 390.19839826 628.28222656 379.52587891 C626.96158203 378.95740234 626.96158203 378.95740234 625.61425781 378.37744141 C609.24824705 370.8160907 599.008019 357.8349897 592.28222656 341.52587891 C588.00967832 329.59011247 587.28222656 316.0984899 587.28222656 303.52587891 C616.65222656 303.52587891 646.02222656 303.52587891 676.28222656 303.52587891 C676.94222656 308.14587891 677.60222656 312.76587891 678.28222656 317.52587891 C681.33079811 324.84245063 685.25833972 327.0797482 692.34472656 330.39697266 C698.9197733 332.92381908 705.38807714 332.74316098 712.34472656 332.77587891 C713.94864258 332.80681641 713.94864258 332.80681641 715.58496094 332.83837891 C726.09463452 332.88918095 735.41860528 331.15715455 744.44238281 325.61181641 C746.28222656 324.52587891 746.28222656 324.52587891 749.28222656 323.52587891 C750.4090395 321.71090388 750.4090395 321.71090388 751.28222656 319.52587891 C751.79462891 318.46240234 751.79462891 318.46240234 752.31738281 317.37744141 C752.65640625 316.64267578 752.99542969 315.90791016 753.34472656 315.15087891 C753.85712891 314.05646484 753.85712891 314.05646484 754.37988281 312.93994141 C756.40658701 307.51784965 756.4200781 302.00475541 756.37988281 296.28369141 C756.37846786 295.51531952 756.37705292 294.74694763 756.37559509 293.95529175 C756.3700334 291.52044652 756.35748816 289.08569597 756.34472656 286.65087891 C756.33970661 284.99202608 756.33514457 283.33317179 756.33105469 281.67431641 C756.32007654 277.62480121 756.30283862 273.57535606 756.28222656 269.52587891 C755.62488525 270.14221191 754.96754395 270.75854492 754.2902832 271.39355469 C752.97338501 272.60760986 752.97338501 272.60760986 751.62988281 273.84619141 C750.7662915 274.64814941 749.9027002 275.45010742 749.01293945 276.27636719 C744.84389698 279.71074871 740.32232711 281.68701399 735.28222656 283.52587891 C734.61626465 283.76959229 733.95030273 284.01330566 733.26416016 284.2644043 C704.77498663 294.2805653 670.16469862 291.39416687 642.984375 278.72558594 C635.6497876 275.15139701 629.40213396 270.9584054 623.28222656 265.52587891 C622.61191406 264.99736328 621.94160156 264.46884766 621.25097656 263.92431641 C601.55577534 248.05873764 592.64348231 222.51278551 588.28222656 198.52587891 C536.47222656 198.52587891 484.66222656 198.52587891 431.28222656 198.52587891 C432.28273236 212.5329601 433.68685109 222.51959158 443.96972656 232.15087891 C454.01656212 240.62321039 465.65516286 241.39316642 478.28222656 240.52587891 C488.1978261 238.9595593 497.20785657 233.71702283 503.54394531 225.95947266 C507.0858775 221.00076759 510.19953757 215.77846067 513.28222656 210.52587891 C519.53424475 212.51184283 525.5819257 214.80618615 531.61816406 217.36962891 C532.48793884 217.7355162 533.35771362 218.1014035 534.25384521 218.4783783 C537.05629224 219.65777441 539.85684086 220.84159763 542.65722656 222.02587891 C546.51572092 223.65427662 550.3751563 225.28042376 554.23535156 226.90478516 C555.18447418 227.304319 556.1335968 227.70385284 557.11148071 228.11549377 C562.74690485 230.48124047 568.39829006 232.79872924 574.07910156 235.05322266 C574.72203156 235.3094339 575.36496155 235.56564514 576.02737427 235.82962036 C578.93834328 236.98849698 581.85303046 238.13552292 584.77587891 239.26416016 C585.77055176 239.65861328 586.76522461 240.05306641 587.79003906 240.45947266 C588.64227051 240.79003662 589.49450195 241.12060059 590.37255859 241.46118164 C592.28222656 242.52587891 592.28222656 242.52587891 593.28222656 245.52587891 C592.0401887 247.74602159 590.78339422 249.67630203 589.28222656 251.71337891 C588.83435791 252.32560303 588.38648926 252.93782715 587.92504883 253.56860352 C563.97571296 285.47822326 530.69597302 304.21919483 491.44482422 309.9362793 C453.36928909 314.97649842 413.05368799 309.94006663 381.54785156 286.49072266 C379.0807659 284.55069621 376.67543563 282.55598039 374.28222656 280.52587891 C373.59644531 279.97416016 372.91066406 279.42244141 372.20410156 278.85400391 C348.74015261 259.45467603 337.04629202 229.66306228 332.14160156 200.47509766 C331.96097168 199.41786499 331.7803418 198.36063232 331.59423828 197.2713623 C331.15368869 194.69006265 330.71642317 192.10825341 330.28222656 189.52587891 C330.07528168 190.22330704 329.86833679 190.92073517 329.65512085 191.63929749 C328.64283912 195.05072108 327.63050904 198.46213033 326.61816406 201.87353516 C326.3328759 202.83491457 326.3328759 202.83491457 326.04182434 203.81571579 C323.7154843 211.65500368 321.38846221 219.49408843 319.06005859 227.33276367 C318.40532455 229.5370207 317.75059162 231.74127805 317.09585953 233.94553566 C316.6562631 235.42548785 316.21665477 236.90543651 315.77703476 238.3853817 C313.16748449 247.17058252 310.56149476 255.95681531 307.96224976 264.74507141 C306.66369976 269.13435002 305.36277334 273.52292189 304.06134033 277.91134644 C303.45891536 279.94496281 302.85763629 281.97891899 302.25750732 284.01321411 C301.43270281 286.80866714 300.60404332 289.60294842 299.77441406 292.39697266 C299.413255 293.62666275 299.413255 293.62666275 299.0447998 294.88119507 C297.3962354 300.41187007 297.3962354 300.41187007 296.28222656 301.52587891 C293.29924443 301.62116111 290.33946311 301.65140065 287.35620117 301.6394043 C286.41971237 301.63955032 285.48322357 301.63969635 284.51835632 301.6398468 C281.40707117 301.63914728 278.29584507 301.63135306 275.18457031 301.62353516 C273.03365614 301.62167112 270.88274153 301.62024715 268.73182678 301.61924744 C263.05840899 301.61542115 257.38501661 301.60558993 251.71160889 301.59454346 C245.9272089 301.58433171 240.14280483 301.57975032 234.35839844 301.57470703 C222.99966328 301.56396776 211.64094703 301.54689002 200.28222656 301.52587891 C198.14066863 295.4660393 196.45444284 289.43029617 195.09326172 283.15185547 C194.79741432 281.81524368 194.79741432 281.81524368 194.49559021 280.45162964 C193.84914839 277.52433106 193.20991542 274.59551668 192.57128906 271.66650391 C192.11697108 269.5964436 191.66240708 267.52643727 191.20761108 265.45648193 C190.25457895 261.11314033 189.30524863 256.7690097 188.35839844 252.42431641 C187.39968755 248.02668288 186.435889 243.63022074 185.46679688 239.23486328 C179.18882018 210.76000924 173.33028972 182.41437535 169.28222656 153.52587891 C169.18490817 154.46523914 169.18490817 154.46523914 169.08562374 155.42357635 C167.36209181 171.69181844 164.71295174 187.56134452 161.31738281 203.55712891 C160.83714414 205.85703829 160.35778859 208.15713224 159.8792572 210.45739746 C158.63267264 216.43667272 157.37317234 222.41315411 156.11102295 228.38916016 C155.08769405 233.24571366 154.07395431 238.10424546 153.06064701 242.96289825 C151.83709169 248.82834732 150.60900849 254.69284492 149.37988281 260.55712891 C149.03728267 262.19295677 149.03728267 262.19295677 148.68776131 263.86183167 C148.03031399 266.99579869 147.36979262 270.12910179 146.70825195 273.26220703 C146.42831894 274.59838074 146.42831894 274.59838074 146.14273071 275.96154785 C144.32898807 284.52167963 142.2882638 293.00022066 140.28222656 301.52587891 C108.27222656 301.52587891 76.26222656 301.52587891 43.28222656 301.52587891 C26.8620138 247.57375125 26.8620138 247.57375125 19.28222656 221.52587891 C18.85167969 222.68861328 18.42113281 223.85134766 17.97753906 225.04931641 C5.60048568 257.98241166 -15.17441614 280.75279953 -47.28466797 295.92260742 C-100.58918864 319.96958217 -172.04092239 316.96885539 -226.21777344 296.83837891 C-245.28507785 289.47641747 -262.50750869 279.58188859 -277.48730469 265.60400391 C-279.53559966 263.69561 -281.63812941 261.88963165 -283.78027344 260.08837891 C-288.52500356 255.95835066 -292.59286149 251.26130913 -296.71777344 246.52587891 C-297.28367187 245.92130859 -297.84957031 245.31673828 -298.43261719 244.69384766 C-301.72012256 241.09671574 -301.72012256 241.09671574 -301.70996094 238.62744141 C-300.21299942 235.45671189 -297.59971299 234.07737636 -294.71777344 232.27587891 C-293.74590088 231.64830688 -293.74590088 231.64830688 -292.75439453 231.00805664 C-291.26749922 230.05069164 -289.7768064 229.09920945 -288.28320312 228.15234375 C-285.43417837 226.34608158 -282.59518991 224.52464234 -279.75683594 222.70166016 C-275.44408471 219.93418141 -271.12747064 217.17288284 -266.80761719 214.41650391 C-261.83013092 211.23915596 -256.86209689 208.04785019 -251.90527344 204.83837891 C-250.926875 204.20657715 -250.926875 204.20657715 -249.92871094 203.56201172 C-246.04951109 201.05272577 -242.18944278 198.51639676 -238.33886719 195.96337891 C-237.42532471 195.36098389 -236.51178223 194.75858887 -235.57055664 194.13793945 C-233.78536295 192.96021971 -232.00378704 191.77699312 -230.22631836 190.58764648 C-229.42170166 190.0580835 -228.61708496 189.52852051 -227.78808594 188.98291016 C-226.7171167 188.27098511 -226.7171167 188.27098511 -225.62451172 187.54467773 C-223.71777344 186.52587891 -223.71777344 186.52587891 -220.71777344 186.52587891 C-219.17480469 188.61572266 -219.17480469 188.61572266 -217.53027344 191.46337891 C-205.73831727 210.57026224 -187.5731932 219.01204335 -166.47167969 224.64697266 C-142.31418594 230.30299357 -113.30448874 232.8118534 -90.71777344 220.52587891 C-89.70505088 219.53876543 -88.70139545 218.54199294 -87.71777344 217.52587891 C-87.05777344 217.52587891 -86.39777344 217.52587891 -85.71777344 217.52587891 C-83.12084318 211.31965574 -81.88644044 206.12864413 -83.71777344 199.52587891 C-88.04339547 191.33809434 -94.36015072 188.48081675 -102.71777344 185.52587891 C-106.26954353 184.50988628 -109.85412228 183.72673564 -113.46777344 182.96337891 C-114.56686035 182.72361328 -115.66594727 182.48384766 -116.79833984 182.23681641 C-125.43459521 180.37728723 -134.09499825 178.64059415 -142.75683594 176.90478516 C-145.13216241 176.42700667 -147.50748792 175.9492234 -149.8828125 175.47143555 C-154.59879375 174.52334423 -159.31707391 173.58807295 -164.03710938 172.66040039 C-181.5339372 169.18444725 -199.28600612 165.5235932 -215.65527344 158.21337891 C-216.51878418 157.83439453 -217.38229492 157.45541016 -218.27197266 157.06494141 C-241.23547118 146.6973645 -259.24526357 130.24489298 -269.25683594 106.94384766 C-273.63157461 95.34183603 -275.09474318 84.06762274 -275.03027344 71.71337891 C-275.02463379 70.57336426 -275.01899414 69.43334961 -275.01318359 68.25878906 C-274.6849218 45.41371839 -266.66841304 22.98923104 -251.71777344 5.52587891 C-251.06292969 4.72666016 -250.40808594 3.92744141 -249.73339844 3.10400391 C-236.43067566 -12.52912286 -217.97052279 -22.90298567 -198.71777344 -29.47412109 C-197.98059082 -29.72790527 -197.2434082 -29.98168945 -196.48388672 -30.24316406 C-135.21230752 -50.77707983 -50.25811386 -43.1294047 0 0 Z M-167.03027344 52.21337891 C-169.47312938 57.00861465 -170.6362794 61.46239137 -169.05371094 66.74072266 C-165.55181888 74.38509678 -159.57249032 77.35699382 -152.01025391 80.37451172 C-146.69170258 82.23438774 -141.30692047 83.34716021 -135.78027344 84.40087891 C-134.5531665 84.64572021 -133.32605957 84.89056152 -132.06176758 85.14282227 C-124.01967568 86.74160735 -115.95703683 88.23361508 -107.89657593 89.7363739 C-74.06827003 96.04449568 -40.68007157 102.89042254 -11.71777344 122.52587891 C-10.30485079 118.28711096 -11.78424055 115.06002665 -13.03417969 110.93212891 C-13.28771713 110.07139771 -13.54125458 109.2106665 -13.80247498 108.32385254 C-14.6203594 105.55540276 -15.45033429 102.79073572 -16.28027344 100.02587891 C-16.81292664 98.22531999 -17.34483534 96.42454066 -17.87597656 94.62353516 C-21.35206701 82.88029935 -24.99132482 71.19186596 -28.71777344 59.52587891 C-29.1905925 59.93190338 -29.66341156 60.33792786 -30.15055847 60.7562561 C-31.08718071 61.55995132 -31.08718071 61.55995132 -32.04272461 62.37988281 C-32.65991867 62.90965729 -33.27711273 63.43943176 -33.91300964 63.98526001 C-36.26026069 65.98896783 -38.63426847 67.95575512 -41.03027344 69.90087891 C-41.87203125 70.58923828 -42.71378906 71.27759766 -43.58105469 71.98681641 C-45.71777344 73.52587891 -45.71777344 73.52587891 -47.71777344 73.52587891 C-49.12792969 72.05712891 -49.12792969 72.05712891 -50.78027344 70.02587891 C-67.04099162 51.17671987 -91.28499064 43.33102725 -115.71777344 41.52587891 C-120.63503011 41.31574901 -125.54648186 41.25006846 -130.46777344 41.21337891 C-131.74910156 41.184375 -133.03042969 41.15537109 -134.35058594 41.12548828 C-146.30344212 41.04669156 -158.86713773 42.72649147 -167.03027344 52.21337891 Z M442.13378906 120.21337891 C436.08720756 127.76522754 433.36494479 136.15364688 431.28222656 145.52587891 C453.72222656 145.52587891 476.16222656 145.52587891 499.28222656 145.52587891 C498.18717741 133.48033827 496.26616758 125.56222371 487.28222656 117.52587891 C484.71752656 115.85411121 482.14254392 114.6058492 479.28222656 113.52587891 C478.34894531 113.17009766 477.41566406 112.81431641 476.45410156 112.44775391 C464.56473656 108.99222418 451.15421981 111.60128042 442.13378906 120.21337891 Z M946.59472656 131.21337891 C932.0275418 148.82642958 932.94441201 173.96869118 934.28222656 195.52587891 C935.80462033 210.16409811 940.94091901 224.63406489 952.28222656 234.52587891 C961.27533784 240.79543924 971.33713877 243.67520153 982.28222656 242.52587891 C994.3710587 240.33227625 1003.1480709 236.56843856 1010.68847656 226.68212891 C1024.25891313 206.49196718 1023.7831265 175.88831158 1019.31347656 152.87353516 C1016.85041893 141.77267126 1012.17678796 131.89295483 1003.28222656 124.52587891 C984.48025411 112.82846856 961.93780692 115.14749819 946.59472656 131.21337891 Z M692.28222656 129.52587891 C678.71260869 146.29907259 678.09597812 167.83486211 679.55957031 188.42822266 C680.88581779 199.85921278 684.31101472 210.82031521 693.28222656 218.52587891 C702.63220025 224.79674479 713.32827732 225.44149954 724.28222656 224.52587891 C733.86160517 222.40683734 741.17510127 218.8209644 746.89941406 210.72900391 C758.01479214 193.01975748 757.42442979 167.34773101 753.28222656 147.52587891 C750.58802666 137.73077155 746.53129757 129.21851177 737.53222656 123.90087891 C732.914021 121.6921719 728.43038869 119.86162861 723.28222656 119.52587891 C722.64285156 119.47560547 722.00347656 119.42533203 721.34472656 119.37353516 C710.42480304 118.88603857 700.2715837 121.93806658 692.28222656 129.52587891 Z " fill="#f5f5f5" transform="translate(301.7177734375,72.47412109375)"/>
<path d="M0 0 C1.16080078 0.00451172 2.32160156 0.00902344 3.51757812 0.01367188 C6.36593934 0.02539353 9.21419222 0.0418024 12.0625 0.0625 C14.36391196 10.44157089 15.5478068 20.33892511 15.45361328 30.97192383 C15.4374745 33.12840696 15.45360955 35.28302451 15.47265625 37.43945312 C15.51033129 60.50378492 8.21297532 81.30736007 -7.6875 98.3125 C-27.54531852 116.91696508 -53.70193333 124.3530593 -80.4375 124.125 C-81.45070313 124.12048828 -82.46390625 124.11597656 -83.5078125 124.11132812 C-85.98443827 124.09964593 -88.46093657 124.08326582 -90.9375 124.0625 C-92.93969253 116.7337198 -94.57821178 109.66199019 -94.9375 102.0625 C-94.99035156 100.97710937 -95.04320312 99.89171875 -95.09765625 98.7734375 C-95.71159692 73.84210759 -88.99138816 45.97178803 -71.9375 27.0625 C-71.4425 26.47597656 -70.9475 25.88945312 -70.4375 25.28515625 C-53.25425027 6.34062342 -24.40522532 -0.18036835 0 0 Z " fill="#007E2D" transform="translate(1756.9375,-0.0625)"/>
<path d="M0 0 C1.59811523 0.00676758 1.59811523 0.00676758 3.22851562 0.01367188 C5.83990291 0.02538213 8.45117124 0.04178276 11.0625 0.0625 C6.57819523 5.4414643 1.82582087 10.41791994 -3.15234375 15.33984375 C-3.92630997 16.11002335 -4.70027618 16.88020294 -5.49769592 17.67372131 C-8.78071733 20.94052854 -12.06967945 24.20133041 -15.3581543 27.46264648 C-17.77081531 29.85711138 -20.18038427 32.25465797 -22.58984375 34.65234375 C-23.32234848 35.37655014 -24.05485321 36.10075653 -24.80955505 36.84690857 C-29.400262 41.41597881 -33.72255312 46.1464224 -37.9375 51.0625 C-38.87430196 52.12286417 -39.81274973 53.18178019 -40.75390625 54.23828125 C-58.16719247 74.02153458 -72.98151032 96.21857992 -86.5546875 118.76953125 C-87.63601915 120.56258684 -88.77602527 122.32028791 -89.9375 124.0625 C-91.93969253 116.7337198 -93.57821178 109.66199019 -93.9375 102.0625 C-93.99035156 100.97710937 -94.04320312 99.89171875 -94.09765625 98.7734375 C-94.71159692 73.84210759 -87.99138816 45.97178803 -70.9375 27.0625 C-70.4425 26.47597656 -69.9475 25.88945312 -69.4375 25.28515625 C-52.57745701 6.69695886 -24.02481169 -0.19386875 0 0 Z " fill="#8EB615" transform="translate(1755.9375,-0.0625)"/>
</svg>
