<svg xmlns="http://www.w3.org/2000/svg" width="373.3426mm" height="327.6614mm" viewBox="0 0 1058.2941 928.804"><g id="Base"><path d="M319.9182,696.603a87.0754,87.0754,0,1,1-116.1005-82.1012V377.3266a29.0251,29.0251,0,0,1,58.05,0V614.5018A87.0971,87.0971,0,0,1,319.9182,696.603Zm87.0754-153.5665a231.3054,231.3054,0,0,1,58.05,153.5665c0,128.2475-103.95,232.201-232.201,232.201-.5424,0-1.1066-.0018-1.649-.0054C103.6611,927.9133-.0058,822.9276.6454,695.393A231.291,231.291,0,0,1,58.6921,543.0365V174.1508a174.1508,174.1508,0,1,1,348.3015,0Zm0,153.5665c0-72.37-41.3862-112.7336-58.05-131.6162V174.1508a116.1005,116.1005,0,0,0-232.201,0v390.836c-17.1738,19.4613-57.682,59.106-58.0484,130.702-.488,95.6124,77.3138,174.3957,172.9026,175.06l1.2463.0054C328.8706,870.7538,406.9936,792.6308,406.9936,696.603Z"/></g><g id="Supply"><rect x="571.225" y="451.0552" width="480.4865" height="26.6937" rx="6.6734"/><path d="M619.2683,420.6236h38.5l-44-66,86-17.2a16.1588,16.1588,0,0,0,12.6-12.6l17.2-86,73,48.7a16.0185,16.0185,0,0,0,17.8,0l73-48.7,17.2,86a16.0265,16.0265,0,0,0,12.6,12.6l86,17.2-44,66h38.5l45.5-68.1a15.9973,15.9973,0,0,0-10.2-24.6l-99-19.8-19.8-99a16.0407,16.0407,0,0,0-9.6-11.7,15.7159,15.7159,0,0,0-15,1.5l-84,56-84-56a16.3029,16.3029,0,0,0-15-1.5,16.1188,16.1188,0,0,0-9.6,11.7l-19.8,99-99,19.8a16.0407,16.0407,0,0,0-11.7,9.6,15.7159,15.7159,0,0,0,1.5,15Z"/><path d="M811.2683,324.6236c-56.3,0-102.5,41.9-110.4,96h32a80.02,80.02,0,0,1,156.8,0h32C913.8683,366.5236,867.5683,324.6236,811.2683,324.6236Z"/><path d="M1031.4183,618.7136l-56.2-32.7v0l52.7-14.3a8.0211,8.0211,0,0,0,5.6-9.8l-4.1-15.5a7.944,7.944,0,0,0-9.7-5.7l-83.2,22.6-93.8-54.8h-63.2l-93.8,54.8-83.2-22.6a7.944,7.944,0,0,0-9.7,5.7l-4.1,15.5a8.0213,8.0213,0,0,0,5.6,9.8l52.7,14.3-55.9,32.6a7.9934,7.9934,0,0,0-2.9,10.9l7.9,13.9a7.877,7.877,0,0,0,10.8,2.9l55.9-32.7-14.1,53.3a8.0213,8.0213,0,0,0,5.6,9.8l15.3,4.1a7.9439,7.9439,0,0,0,9.7-5.7l22.3-84.2,93.8-54.8v109.7l-61,61.7a8.0276,8.0276,0,0,0,0,11.3l11.2,11.3a7.9066,7.9066,0,0,0,11.2,0l38.6-39v65.4a7.9384,7.9384,0,0,0,7.9,8h15.8a7.9384,7.9384,0,0,0,7.9-8v-65.4l38.6,39a7.9066,7.9066,0,0,0,11.2,0l11.2-11.3a8.0274,8.0274,0,0,0,0-11.3l-60.9-61.7v-109.6l93.8,54.8,22.3,84.2a7.944,7.944,0,0,0,9.7,5.7l15.3-4.1a8.0213,8.0213,0,0,0,5.6-9.8l-14.1-53.3,55.9,32.7a7.8769,7.8769,0,0,0,10.8-2.9l7.9-13.9A7.9932,7.9932,0,0,0,1031.4183,618.7136Z"/></g></svg>