<svg xmlns="http://www.w3.org/2000/svg" width="373.3426mm" height="327.6614mm" viewBox="0 0 1058.2941 928.804"><g id="Base"><path d="M319.9182,696.603a87.0754,87.0754,0,1,1-116.1005-82.1012V377.3266a29.0251,29.0251,0,0,1,58.05,0V614.5018A87.0971,87.0971,0,0,1,319.9182,696.603Zm87.0754-153.5665a231.3054,231.3054,0,0,1,58.05,153.5665c0,128.2475-103.95,232.201-232.201,232.201-.5424,0-1.1066-.0018-1.649-.0054C103.6611,927.9133-.0058,822.9276.6454,695.393A231.291,231.291,0,0,1,58.6921,543.0365V174.1508a174.1508,174.1508,0,1,1,348.3015,0Zm0,153.5665c0-72.37-41.3862-112.7336-58.05-131.6162V174.1508a116.1005,116.1005,0,0,0-232.201,0v390.836c-17.1738,19.4613-57.682,59.106-58.0484,130.702-.488,95.6124,77.3138,174.3957,172.9026,175.06l1.2463.0054C328.8706,870.7538,406.9936,792.6308,406.9936,696.603Z"/></g><g id="Return"><path d="M1050.991,437.5457l-232.85-190a32.16,32.16,0,0,0-40.38,0l-232.77,190a8,8,0,0,0-1.16,11.24l10.1,12.41a8,8,0,0,0,11.2,1.19l40.86-33.38v243a16,16,0,0,0,16,16h128a16,16,0,0,0,16-16v-128l64,.3v128.08a16,16,0,0,0,16,16l128-.33a16,16,0,0,0,16-16v-243.05l40.86,33.38a8,8,0,0,0,11.25-1.16l10.1-12.41a8,8,0,0,0-1.1868-11.2513l-.0232-.0187Zm-93.11,218.59h.1l-96,.3v-128.17a16.05,16.05,0,0,0-15.95-16l-96-.27a16,16,0,0,0-16.05,15.95v128.19h-95.99v-253.24l160-130.57,160,130.57Z"/></g></svg>