<svg xmlns="http://www.w3.org/2000/svg" width="373.3426mm" height="327.6614mm" viewBox="0 0 1058.2941 928.804"><g id="Base"><path d="M319.9182,696.603a87.0754,87.0754,0,1,1-116.1005-82.1012V377.3266a29.0251,29.0251,0,0,1,58.05,0V614.5018A87.0971,87.0971,0,0,1,319.9182,696.603Zm87.0754-153.5665a231.3054,231.3054,0,0,1,58.05,153.5665c0,128.2475-103.95,232.201-232.201,232.201-.5424,0-1.1066-.0018-1.649-.0054C103.6611,927.9133-.0058,822.9276.6454,695.393A231.291,231.291,0,0,1,58.6921,543.0365V174.1508a174.1508,174.1508,0,1,1,348.3015,0Zm0,153.5665c0-72.37-41.3862-112.7336-58.05-131.6162V174.1508a116.1005,116.1005,0,0,0-232.201,0v390.836c-17.1738,19.4613-57.682,59.106-58.0484,130.702-.488,95.6124,77.3138,174.3957,172.9026,175.06l1.2463.0054C328.8706,870.7538,406.9936,792.6308,406.9936,696.603Z"/></g><g id="Intake"><path d="M858.1941,620.9082l-148.4-148a12.0107,12.0107,0,0,1,0-17l148.4-148a12.0107,12.0107,0,0,1,17,0l19.6,19.6a11.8671,11.8671,0,0,1-.2,17.1l-97.1,93.8h248.8a12.0353,12.0353,0,0,1,12,12v28a12.0353,12.0353,0,0,1-12,12h-248.8l97.1,93.7a12.0431,12.0431,0,0,1,.2,17.1l-19.6,19.6a11.9221,11.9221,0,0,1-17,.1Zm-195.9,23.5v-360a12.0353,12.0353,0,0,0-12-12h-28a12.0353,12.0353,0,0,0-12,12v360a12.0353,12.0353,0,0,0,12,12h28A12.0353,12.0353,0,0,0,662.2941,644.4082Z"/></g></svg>